<?xml version="1.0" encoding="UTF-8"?>
<!DOCTYPE svg PUBLIC "-//W3C//DTD SVG 1.1//EN" "http://www.w3.org/Graphics/SVG/1.1/DTD/svg11.dtd">
<svg xmlns="http://www.w3.org/2000/svg" version="1.1" width="500px" height="500px" style="shape-rendering:geometricPrecision; text-rendering:geometricPrecision; image-rendering:optimizeQuality; fill-rule:evenodd; clip-rule:evenodd" xmlns:xlink="http://www.w3.org/1999/xlink">
<g><path style="opacity:1" fill="#192331" d="M 410.5,199.5 C 410.462,202.181 411.129,204.681 412.5,207C 410.574,209.797 407.907,211.297 404.5,211.5C 398.331,212.89 392.331,214.89 386.5,217.5C 374.153,174.306 347.82,142.806 307.5,123C 254.593,101.749 205.593,108.416 160.5,143C 117.069,182.633 102.236,231.133 116,288.5C 119.142,298.283 122.975,307.783 127.5,317C 120.32,320.756 112.987,324.256 105.5,327.5C 106.545,324.886 107.045,322.22 107,319.5C 99.1622,308.826 93.1622,297.159 89,284.5C 85.9953,282.488 82.8286,281.155 79.5,280.5C 79.3893,279.883 79.056,279.383 78.5,279C 67.1186,275.262 55.7853,271.428 44.5,267.5C 43.1667,253.833 43.1667,240.167 44.5,226.5C 59.2896,220.881 74.2896,215.715 89.5,211C 91.4035,208.123 92.4035,204.956 92.5,201.5C 95.155,194.183 98.8216,187.516 103.5,181.5C 106.826,179.664 108.826,176.83 109.5,173C 106.158,165.815 102.658,158.649 99,151.5C 98.3333,149.833 98.3333,148.167 99,146.5C 104.618,138.547 110.618,130.88 117,123.5C 122.713,118.282 128.546,113.282 134.5,108.5C 142.674,112.998 151.341,115.998 160.5,117.5C 163.146,118.487 165.812,119.487 168.5,120.5C 181.93,113.912 195.93,108.912 210.5,105.5C 215.826,92.0213 221.826,78.8546 228.5,66C 244.833,65.3333 261.167,65.3333 277.5,66C 283.099,76.7857 287.933,87.9523 292,99.5C 292.896,102.14 294.396,104.307 296.5,106C 310.787,109.195 324.62,113.695 338,119.5C 351.567,114.199 365.067,108.699 378.5,103C 380.5,102.333 382.5,102.333 384.5,103C 395.333,112.5 406.167,122 417,131.5C 417.667,132.833 417.667,134.167 417,135.5C 409.973,147.554 403.473,159.887 397.5,172.5C 402.101,181.368 406.434,190.368 410.5,199.5 Z"/></g>
<g><path style="opacity:0.994" fill="#16202c" d="M 160.5,117.5 C 151.341,115.998 142.674,112.998 134.5,108.5C 128.546,113.282 122.713,118.282 117,123.5C 110.618,130.88 104.618,138.547 99,146.5C 98.3333,148.167 98.3333,149.833 99,151.5C 102.658,158.649 106.158,165.815 109.5,173C 108.826,176.83 106.826,179.664 103.5,181.5C 105.014,178.308 106.68,175.141 108.5,172C 101.071,158.97 94.2374,145.803 88,132.5C 99.1667,122.667 110.333,112.833 121.5,103C 123.167,102.333 124.833,102.333 126.5,103C 138.039,107.609 149.372,112.443 160.5,117.5 Z"/></g>
<g><path style="opacity:1" fill="#1b2634" d="M 404.5,211.5 C 397.145,214.585 389.645,217.585 382,220.5C 380.97,220.836 380.47,221.503 380.5,222.5C 376.681,222.605 373.014,223.438 369.5,225C 358.719,229.147 348.053,233.48 337.5,238C 336.848,245.776 336.181,253.609 335.5,261.5C 334.056,263.608 333.39,265.941 333.5,268.5C 321.956,294.847 301.956,311.347 273.5,318C 266.805,319.033 260.138,320.199 253.5,321.5C 244.63,319.931 235.63,318.597 226.5,317.5C 213.489,313.831 202.155,307.331 192.5,298C 191.127,297.125 189.627,296.625 188,296.5C 174.524,300.81 161.691,306.143 149.5,312.5C 133.981,316.784 118.981,322.451 104.5,329.5C 104.328,328.508 104.662,327.842 105.5,327.5C 112.987,324.256 120.32,320.756 127.5,317C 122.975,307.783 119.142,298.283 116,288.5C 102.236,231.133 117.069,182.633 160.5,143C 205.593,108.416 254.593,101.749 307.5,123C 347.82,142.806 374.153,174.306 386.5,217.5C 392.331,214.89 398.331,212.89 404.5,211.5 Z"/></g>
<g><path style="opacity:1" fill="#9a9ea4" d="M 137.5,134.5 C 137.5,134.833 137.5,135.167 137.5,135.5C 135.585,135.216 133.919,135.549 132.5,136.5C 131.053,137.134 130.387,138.301 130.5,140C 130.773,141.533 131.106,143.033 131.5,144.5C 130.883,144.389 130.383,144.056 130,143.5C 129.505,141.527 129.338,139.527 129.5,137.5C 131.391,134.828 134.058,133.828 137.5,134.5 Z"/></g>
<g><path style="opacity:1" fill="#c3c6ca" d="M 132.5,136.5 C 133.919,135.549 135.585,135.216 137.5,135.5C 140.092,137.036 141.092,139.369 140.5,142.5C 139.833,142.833 139.167,143.167 138.5,143.5C 139.906,138.069 137.906,135.735 132.5,136.5 Z"/></g>
<g><path style="opacity:1" fill="#eff0f0" d="M 132.5,136.5 C 137.906,135.735 139.906,138.069 138.5,143.5C 137.688,144.993 136.355,145.66 134.5,145.5C 133.274,145.48 132.274,145.147 131.5,144.5C 131.106,143.033 130.773,141.533 130.5,140C 130.387,138.301 131.053,137.134 132.5,136.5 Z"/></g>
<g><path style="opacity:1" fill="#636a73" d="M 137.5,135.5 C 137.5,135.167 137.5,134.833 137.5,134.5C 139.017,134.511 140.184,135.177 141,136.5C 141.789,138.712 141.622,140.712 140.5,142.5C 141.092,139.369 140.092,137.036 137.5,135.5 Z"/></g>
<g><path style="opacity:1" fill="#5f666f" d="M 129.5,137.5 C 129.338,139.527 129.505,141.527 130,143.5C 130.383,144.056 130.883,144.389 131.5,144.5C 132.274,145.147 133.274,145.48 134.5,145.5C 136.355,145.66 137.688,144.993 138.5,143.5C 139.167,143.167 139.833,142.833 140.5,142.5C 139.157,147.078 136.157,148.578 131.5,147C 128.467,144.239 127.8,141.073 129.5,137.5 Z"/></g>
<g><path style="opacity:1" fill="#39424d" d="M 140.5,152.5 C 142.377,153.659 142.877,155.326 142,157.5C 139.619,158.435 137.119,158.768 134.5,158.5C 133.813,153.178 135.813,151.178 140.5,152.5 Z"/></g>
<g><path style="opacity:1" fill="#a8abb1" d="M 140.5,152.5 C 140.5,153.833 140.5,155.167 140.5,156.5C 139.167,156.5 137.833,156.5 136.5,156.5C 136.167,153.5 137.5,152.167 140.5,152.5 Z"/></g>
<g><path style="opacity:1" fill="#2c3e54" d="M 269.5,175.5 C 274.738,176.851 280.072,178.351 285.5,180C 287.332,180.748 288.999,181.748 290.5,183C 292.473,183.495 294.473,183.662 296.5,183.5C 296.33,184.822 296.663,185.989 297.5,187C 306.53,192.357 314.696,198.857 322,206.5C 324.347,211.869 327.181,217.036 330.5,222C 333.862,227.707 334.862,233.707 333.5,240C 324.779,245.027 315.779,249.527 306.5,253.5C 305.702,253.957 305.369,254.624 305.5,255.5C 304.687,253.739 303.687,252.072 302.5,250.5C 302.5,250.167 302.5,249.833 302.5,249.5C 300.712,245.778 299.046,242.111 297.5,238.5C 297.741,236.102 297.074,234.102 295.5,232.5C 294.148,228.824 292.815,225.157 291.5,221.5C 290.601,217.376 288.934,213.709 286.5,210.5C 286.5,210.167 286.5,209.833 286.5,209.5C 284.364,205.424 283.03,201.09 282.5,196.5C 281.848,195.275 280.681,194.608 279,194.5C 275.515,194.83 272.348,195.83 269.5,197.5C 267.901,197.232 266.568,197.566 265.5,198.5C 262.848,198.41 260.515,199.076 258.5,200.5C 258.5,208.5 258.5,216.5 258.5,224.5C 258.5,227.167 258.5,229.833 258.5,232.5C 257.833,242.5 257.167,252.5 256.5,262.5C 256.008,260.181 255.008,258.181 253.5,256.5C 253.573,254.973 252.906,253.973 251.5,253.5C 245.08,242.988 238.413,232.655 231.5,222.5C 230.416,219.996 229.083,217.663 227.5,215.5C 226.962,213.883 226.629,212.216 226.5,210.5C 218.565,211.487 210.899,213.487 203.5,216.5C 203.167,217.5 202.833,218.5 202.5,219.5C 203.289,226.092 204.623,232.425 206.5,238.5C 207.594,248.389 209.26,258.056 211.5,267.5C 211.401,270.237 211.735,272.904 212.5,275.5C 212.833,278.167 213.167,280.833 213.5,283.5C 212.596,282.791 212.263,281.791 212.5,280.5C 204.506,282.778 196.839,285.945 189.5,290C 188.5,290.667 187.5,290.667 186.5,290C 179.228,279.29 173.728,267.79 170,255.5C 168.622,237.306 173.288,220.973 184,206.5C 190.762,199.233 197.928,192.566 205.5,186.5C 210.208,185.542 214.542,183.709 218.5,181C 226.167,179.333 233.833,177.667 241.5,176C 250.827,175.5 260.161,175.334 269.5,175.5 Z"/></g>
<g><path style="opacity:1" fill="#243346" d="M 269.5,175.5 C 260.161,175.334 250.827,175.5 241.5,176C 233.833,177.667 226.167,179.333 218.5,181C 214.542,183.709 210.208,185.542 205.5,186.5C 216.035,179.486 227.702,175.319 240.5,174C 248.833,173.333 257.167,173.333 265.5,174C 267.058,174.21 268.391,174.71 269.5,175.5 Z"/></g>
<g><path style="opacity:1" fill="#6b737d" d="M 282.5,196.5 C 281.423,195.982 280.256,195.648 279,195.5C 275.888,196.483 272.722,197.15 269.5,197.5C 272.348,195.83 275.515,194.83 279,194.5C 280.681,194.608 281.848,195.275 282.5,196.5 Z"/></g>
<g><path style="opacity:1" fill="#b2b3b4" d="M 282.5,196.5 C 283.03,201.09 284.364,205.424 286.5,209.5C 282.055,206.438 277.389,203.605 272.5,201C 269.183,200.502 265.85,200.335 262.5,200.5C 263.5,199.833 264.5,199.167 265.5,198.5C 266.568,197.566 267.901,197.232 269.5,197.5C 272.722,197.15 275.888,196.483 279,195.5C 280.256,195.648 281.423,195.982 282.5,196.5 Z"/></g>
<g><path style="opacity:1" fill="#79828e" d="M 265.5,198.5 C 264.5,199.167 263.5,199.833 262.5,200.5C 261.167,200.5 259.833,200.5 258.5,200.5C 260.515,199.076 262.848,198.41 265.5,198.5 Z"/></g>
<g><path style="opacity:1" fill="#d2d2d4" d="M 258.5,200.5 C 259.833,200.5 261.167,200.5 262.5,200.5C 265.85,200.335 269.183,200.502 272.5,201C 277.389,203.605 282.055,206.438 286.5,209.5C 286.5,209.833 286.5,210.167 286.5,210.5C 286.578,215.001 288.245,218.668 291.5,221.5C 292.815,225.157 294.148,228.824 295.5,232.5C 295.259,234.898 295.926,236.898 297.5,238.5C 297.579,243.089 299.245,246.756 302.5,249.5C 302.5,249.833 302.5,250.167 302.5,250.5C 302.5,251.833 302.5,253.167 302.5,254.5C 301.769,260.758 300.102,266.758 297.5,272.5C 295.955,273.452 294.288,273.785 292.5,273.5C 292.371,271.784 292.038,270.117 291.5,268.5C 293.41,267.025 294.576,265.025 295,262.5C 299.463,240.86 292.463,224.193 274,212.5C 273.5,212.833 273,213.167 272.5,213.5C 273.348,215.409 273.682,217.409 273.5,219.5C 272.833,219.5 272.5,219.167 272.5,218.5C 272.509,216.692 272.009,215.025 271,213.5C 270.5,222.827 270.334,232.161 270.5,241.5C 270.5,243.167 270.5,244.833 270.5,246.5C 270.167,246.5 269.833,246.5 269.5,246.5C 269.788,235.801 269.454,225.134 268.5,214.5C 266.877,211.904 264.544,210.737 261.5,211C 260.703,214.745 260.203,218.579 260,222.5C 259.722,223.416 259.222,224.082 258.5,224.5C 258.5,216.5 258.5,208.5 258.5,200.5 Z"/></g>
<g><path style="opacity:0.999" fill="#293a4e" d="M 411.5,287.5 C 408.946,297.274 405.279,306.608 400.5,315.5C 398.983,315.511 397.816,316.177 397,317.5C 396.755,324.999 398.922,331.833 403.5,338C 393.558,354.946 381.058,369.779 366,382.5C 360.311,380.708 354.811,378.541 349.5,376C 346.883,375.178 344.216,374.678 341.5,374.5C 339.473,374.338 337.473,374.505 335.5,375C 322.588,381.249 309.255,386.415 295.5,390.5C 289.593,404.059 283.593,417.559 277.5,431C 260.823,431.833 244.157,431.666 227.5,430.5C 222.215,416.969 216.548,403.636 210.5,390.5C 195.736,386.301 181.569,380.635 168,373.5C 162.515,375.606 157.015,377.606 151.5,379.5C 145.393,379.941 139.727,381.441 134.5,384C 120.391,372.071 108.724,358.238 99.5,342.5C 102.546,338.696 104.212,334.362 104.5,329.5C 118.981,322.451 133.981,316.784 149.5,312.5C 144.517,315.454 139.184,317.954 133.5,320C 169.229,372.59 218.562,393.257 281.5,382C 324.126,370.769 354.959,345.269 374,305.5C 385.383,279.101 388.383,251.768 383,223.5C 368.517,228.995 354.017,234.495 339.5,240C 338.567,247.435 337.734,254.935 337,262.5C 336.4,264.91 335.234,266.91 333.5,268.5C 333.39,265.941 334.056,263.608 335.5,261.5C 336.181,253.609 336.848,245.776 337.5,238C 348.053,233.48 358.719,229.147 369.5,225C 373.014,223.438 376.681,222.605 380.5,222.5C 390.605,218.242 400.939,214.576 411.5,211.5C 415.737,213.041 419.737,214.875 423.5,217C 426.826,236.08 427.326,255.247 425,274.5C 424.751,275.624 424.251,276.624 423.5,277.5C 419.774,278.848 416.108,280.348 412.5,282C 411.594,283.699 411.261,285.533 411.5,287.5 Z"/></g>
<g><path style="opacity:1" fill="#cdcecf" d="M 222.5,213.5 C 216.411,218.771 211.578,225.104 208,232.5C 207.324,238.398 207.824,244.065 209.5,249.5C 210.972,253.919 211.638,258.586 211.5,263.5C 211.5,264.833 211.5,266.167 211.5,267.5C 209.26,258.056 207.594,248.389 206.5,238.5C 205.827,233.132 205.327,227.799 205,222.5C 209.068,215.563 214.901,212.563 222.5,213.5 Z"/></g>
<g><path style="opacity:1" fill="#dfe0e0" d="M 222.5,213.5 C 224.514,213.392 226.18,214.058 227.5,215.5C 229.083,217.663 230.416,219.996 231.5,222.5C 229.504,220.576 227.504,220.41 225.5,222C 223.112,224.629 221.112,227.462 219.5,230.5C 218.849,229.909 218.182,229.243 217.5,228.5C 217.167,229 216.833,229.5 216.5,230C 217.233,231.766 217.567,233.599 217.5,235.5C 216.768,234.192 215.934,232.858 215,231.5C 211.348,236.913 209.515,242.913 209.5,249.5C 207.824,244.065 207.324,238.398 208,232.5C 211.578,225.104 216.411,218.771 222.5,213.5 Z"/></g>
<g><path style="opacity:1" fill="#253548" d="M 410.5,199.5 C 416.145,203.145 420.812,207.812 424.5,213.5C 435.677,216.837 446.677,220.67 457.5,225C 458.159,232.257 458.492,239.59 458.5,247C 458.492,254.41 458.159,261.743 457.5,269C 443.511,273.663 429.511,278.33 415.5,283C 413.391,283.907 412.058,285.407 411.5,287.5C 411.261,285.533 411.594,283.699 412.5,282C 416.108,280.348 419.774,278.848 423.5,277.5C 424.251,276.624 424.751,275.624 425,274.5C 427.326,255.247 426.826,236.08 423.5,217C 419.737,214.875 415.737,213.041 411.5,211.5C 400.939,214.576 390.605,218.242 380.5,222.5C 380.47,221.503 380.97,220.836 382,220.5C 389.645,217.585 397.145,214.585 404.5,211.5C 407.907,211.297 410.574,209.797 412.5,207C 411.129,204.681 410.462,202.181 410.5,199.5 Z"/></g>
<g><path style="opacity:1" fill="#a6aaae" d="M 227.5,215.5 C 226.18,214.058 224.514,213.392 222.5,213.5C 214.901,212.563 209.068,215.563 205,222.5C 205.327,227.799 205.827,233.132 206.5,238.5C 204.623,232.425 203.289,226.092 202.5,219.5C 202.833,218.5 203.167,217.5 203.5,216.5C 210.899,213.487 218.565,211.487 226.5,210.5C 226.629,212.216 226.962,213.883 227.5,215.5 Z"/></g>
<g><path style="opacity:1" fill="#90979f" d="M 286.5,210.5 C 288.934,213.709 290.601,217.376 291.5,221.5C 288.245,218.668 286.578,215.001 286.5,210.5 Z"/></g>
<g><path style="opacity:1" fill="#e9eaea" d="M 291.5,268.5 C 291.573,266.973 290.906,265.973 289.5,265.5C 288.833,264.167 288.167,262.833 287.5,261.5C 286.365,256.763 285.032,252.097 283.5,247.5C 283.065,244.843 282.065,242.509 280.5,240.5C 280.323,236.292 278.99,232.626 276.5,229.5C 275.508,226.177 274.508,222.844 273.5,219.5C 273.682,217.409 273.348,215.409 272.5,213.5C 273,213.167 273.5,212.833 274,212.5C 292.463,224.193 299.463,240.86 295,262.5C 294.576,265.025 293.41,267.025 291.5,268.5 Z"/></g>
<g><path style="opacity:1" fill="#2f4056" d="M 272.5,218.5 C 272.5,219.167 272.833,219.5 273.5,219.5C 274.508,222.844 275.508,226.177 276.5,229.5C 277.462,233.395 278.796,237.061 280.5,240.5C 280.166,243.491 281.166,245.824 283.5,247.5C 285.032,252.097 286.365,256.763 287.5,261.5C 286.735,261.077 285.902,260.743 285,260.5C 279.836,261.916 274.67,263.249 269.5,264.5C 270.074,258.516 270.407,252.516 270.5,246.5C 270.5,244.833 270.5,243.167 270.5,241.5C 271.167,233.833 271.833,226.167 272.5,218.5 Z"/></g>
<g><path style="opacity:1" fill="#f6f7f7" d="M 269.5,246.5 C 269.299,252.509 268.966,258.509 268.5,264.5C 268.5,267.167 268.5,269.833 268.5,272.5C 267.77,276.061 267.103,279.727 266.5,283.5C 263.461,284.01 260.461,284.677 257.5,285.5C 256.391,285.443 255.391,285.11 254.5,284.5C 252.145,279.12 248.812,274.454 244.5,270.5C 238.077,260.651 231.411,250.984 224.5,241.5C 224.573,239.973 223.906,238.973 222.5,238.5C 222.34,236.847 221.674,235.514 220.5,234.5C 220.167,233.167 219.833,231.833 219.5,230.5C 221.112,227.462 223.112,224.629 225.5,222C 227.504,220.41 229.504,220.576 231.5,222.5C 238.413,232.655 245.08,242.988 251.5,253.5C 251.427,255.027 252.094,256.027 253.5,256.5C 255.008,258.181 256.008,260.181 256.5,262.5C 256.369,263.376 256.702,264.043 257.5,264.5C 258.499,253.854 258.832,243.187 258.5,232.5C 258.5,229.833 258.5,227.167 258.5,224.5C 259.222,224.082 259.722,223.416 260,222.5C 260.203,218.579 260.703,214.745 261.5,211C 264.544,210.737 266.877,211.904 268.5,214.5C 269.454,225.134 269.788,235.801 269.5,246.5 Z"/></g>
<g><path style="opacity:1" fill="#5f6d7d" d="M 272.5,218.5 C 271.833,226.167 271.167,233.833 270.5,241.5C 270.334,232.161 270.5,222.827 271,213.5C 272.009,215.025 272.509,216.692 272.5,218.5 Z"/></g>
<g><path style="opacity:1" fill="#959ea8" d="M 276.5,229.5 C 278.99,232.626 280.323,236.292 280.5,240.5C 278.796,237.061 277.462,233.395 276.5,229.5 Z"/></g>
<g><path style="opacity:1" fill="#6f7b89" d="M 219.5,230.5 C 219.833,231.833 220.167,233.167 220.5,234.5C 219.075,232.969 218.409,233.302 218.5,235.5C 218.167,235.5 217.833,235.5 217.5,235.5C 217.567,233.599 217.233,231.766 216.5,230C 216.833,229.5 217.167,229 217.5,228.5C 218.182,229.243 218.849,229.909 219.5,230.5 Z"/></g>
<g><path style="opacity:1" fill="#9198a2" d="M 295.5,232.5 C 297.074,234.102 297.741,236.102 297.5,238.5C 295.926,236.898 295.259,234.898 295.5,232.5 Z"/></g>
<g><path style="opacity:1" fill="#2b3d52" d="M 149.5,312.5 C 161.691,306.143 174.524,300.81 188,296.5C 189.627,296.625 191.127,297.125 192.5,298C 202.155,307.331 213.489,313.831 226.5,317.5C 235.63,318.597 244.63,319.931 253.5,321.5C 260.138,320.199 266.805,319.033 273.5,318C 301.956,311.347 321.956,294.847 333.5,268.5C 335.234,266.91 336.4,264.91 337,262.5C 337.734,254.935 338.567,247.435 339.5,240C 354.017,234.495 368.517,228.995 383,223.5C 388.383,251.768 385.383,279.101 374,305.5C 354.959,345.269 324.126,370.769 281.5,382C 218.562,393.257 169.229,372.59 133.5,320C 139.184,317.954 144.517,315.454 149.5,312.5 Z"/></g>
<g><path style="opacity:1" fill="#ededed" d="M 217.5,235.5 C 218.057,240.165 219.39,244.498 221.5,248.5C 222.434,249.568 222.768,250.901 222.5,252.5C 223.205,258.125 224.538,263.458 226.5,268.5C 226.833,271.167 227.167,273.833 227.5,276.5C 227.664,279.187 227.497,281.854 227,284.5C 219.65,279.001 214.483,272.001 211.5,263.5C 211.638,258.586 210.972,253.919 209.5,249.5C 209.515,242.913 211.348,236.913 215,231.5C 215.934,232.858 216.768,234.192 217.5,235.5 Z"/></g>
<g><path style="opacity:1" fill="#33445a" d="M 220.5,234.5 C 221.674,235.514 222.34,236.847 222.5,238.5C 222.427,240.027 223.094,241.027 224.5,241.5C 231.411,250.984 238.077,260.651 244.5,270.5C 239.478,271.505 234.478,272.672 229.5,274C 228.748,274.671 228.414,275.504 228.5,276.5C 228.167,276.5 227.833,276.5 227.5,276.5C 227.167,273.833 226.833,271.167 226.5,268.5C 226.538,262.687 225.205,257.354 222.5,252.5C 222.768,250.901 222.434,249.568 221.5,248.5C 220.707,244.12 219.707,239.786 218.5,235.5C 218.409,233.302 219.075,232.969 220.5,234.5 Z"/></g>
<g><path style="opacity:1" fill="#74808e" d="M 222.5,238.5 C 223.906,238.973 224.573,239.973 224.5,241.5C 223.094,241.027 222.427,240.027 222.5,238.5 Z"/></g>
<g><path style="opacity:1" fill="#6d7988" d="M 280.5,240.5 C 282.065,242.509 283.065,244.843 283.5,247.5C 281.166,245.824 280.166,243.491 280.5,240.5 Z"/></g>
<g><path style="opacity:1" fill="#a4abb4" d="M 217.5,235.5 C 217.833,235.5 218.167,235.5 218.5,235.5C 219.707,239.786 220.707,244.12 221.5,248.5C 219.39,244.498 218.057,240.165 217.5,235.5 Z"/></g>
<g><path style="opacity:1" fill="#a5aab0" d="M 297.5,238.5 C 299.046,242.111 300.712,245.778 302.5,249.5C 299.245,246.756 297.579,243.089 297.5,238.5 Z"/></g>
<g><path style="opacity:1" fill="#a7afb8" d="M 258.5,232.5 C 258.832,243.187 258.499,253.854 257.5,264.5C 256.702,264.043 256.369,263.376 256.5,262.5C 257.167,252.5 257.833,242.5 258.5,232.5 Z"/></g>
<g><path style="opacity:1" fill="#5e6b7c" d="M 222.5,252.5 C 225.205,257.354 226.538,262.687 226.5,268.5C 224.538,263.458 223.205,258.125 222.5,252.5 Z"/></g>
<g><path style="opacity:1" fill="#a4abb5" d="M 251.5,253.5 C 252.906,253.973 253.573,254.973 253.5,256.5C 252.094,256.027 251.427,255.027 251.5,253.5 Z"/></g>
<g><path style="opacity:1" fill="#929ba6" d="M 269.5,246.5 C 269.833,246.5 270.167,246.5 270.5,246.5C 270.407,252.516 270.074,258.516 269.5,264.5C 269.167,264.5 268.833,264.5 268.5,264.5C 268.966,258.509 269.299,252.509 269.5,246.5 Z"/></g>
<g><path style="opacity:1" fill="#c0c0c1" d="M 302.5,254.5 C 306.02,259.525 306.353,264.858 303.5,270.5C 301.668,271.057 300.335,272.057 299.5,273.5C 297.293,274.739 294.959,275.239 292.5,275C 291.115,271.961 290.115,268.794 289.5,265.5C 290.906,265.973 291.573,266.973 291.5,268.5C 292.038,270.117 292.371,271.784 292.5,273.5C 294.288,273.785 295.955,273.452 297.5,272.5C 300.102,266.758 301.769,260.758 302.5,254.5 Z"/></g>
<g><path style="opacity:1" fill="#a3a5a7" d="M 302.5,250.5 C 303.687,252.072 304.687,253.739 305.5,255.5C 306.811,259.822 308.144,264.156 309.5,268.5C 309.167,269.167 308.833,269.833 308.5,270.5C 305.519,271.659 302.519,272.659 299.5,273.5C 300.335,272.057 301.668,271.057 303.5,270.5C 306.353,264.858 306.02,259.525 302.5,254.5C 302.5,253.167 302.5,251.833 302.5,250.5 Z"/></g>
<g><path style="opacity:1" fill="#dbdbdc" d="M 211.5,263.5 C 214.483,272.001 219.65,279.001 227,284.5C 227.497,281.854 227.664,279.187 227.5,276.5C 227.833,276.5 228.167,276.5 228.5,276.5C 228.5,277.5 228.5,278.5 228.5,279.5C 228.41,282.152 229.076,284.485 230.5,286.5C 231.468,288.607 231.802,290.941 231.5,293.5C 230.833,293.5 230.167,293.5 229.5,293.5C 220.327,290.664 214.66,284.664 212.5,275.5C 211.735,272.904 211.401,270.237 211.5,267.5C 211.5,266.167 211.5,264.833 211.5,263.5 Z"/></g>
<g><path style="opacity:0.778" fill="#121a25" d="M 92.5,201.5 C 92.4035,204.956 91.4035,208.123 89.5,211C 74.2896,215.715 59.2896,220.881 44.5,226.5C 43.1667,240.167 43.1667,253.833 44.5,267.5C 55.7853,271.428 67.1186,275.262 78.5,279C 79.056,279.383 79.3893,279.883 79.5,280.5C 66.8218,276.829 54.1551,273.162 41.5,269.5C 41.1673,254.485 41.5007,239.485 42.5,224.5C 57.7937,219.606 73.1271,214.772 88.5,210C 89.9478,207.124 91.2811,204.291 92.5,201.5 Z"/></g>
<g><path style="opacity:1" fill="#aeb1b6" d="M 268.5,272.5 C 269.08,276.649 268.414,280.316 266.5,283.5C 267.103,279.727 267.77,276.061 268.5,272.5 Z"/></g>
<g><path style="opacity:1" fill="#c1c2c3" d="M 212.5,275.5 C 214.66,284.664 220.327,290.664 229.5,293.5C 227.343,294.407 225.01,295.073 222.5,295.5C 220.738,295.643 219.071,295.309 217.5,294.5C 216.675,292.64 215.675,290.974 214.5,289.5C 214.167,287.5 213.833,285.5 213.5,283.5C 213.167,280.833 212.833,278.167 212.5,275.5 Z"/></g>
<g><path style="opacity:1" fill="#969aa0" d="M 228.5,279.5 C 229.924,281.515 230.59,283.848 230.5,286.5C 229.076,284.485 228.41,282.152 228.5,279.5 Z"/></g>
<g><path style="opacity:1" fill="#8e939a" d="M 254.5,284.5 C 255.391,285.11 256.391,285.443 257.5,285.5C 256.053,286.885 255.053,286.552 254.5,284.5 Z"/></g>
<g><path style="opacity:1" fill="#96999c" d="M 214.5,289.5 C 215.675,290.974 216.675,292.64 217.5,294.5C 219.071,295.309 220.738,295.643 222.5,295.5C 221.5,296.167 220.5,296.833 219.5,297.5C 218.178,297.67 217.011,297.337 216,296.5C 215.023,294.26 214.523,291.927 214.5,289.5 Z"/></g>
<g><path style="opacity:1" fill="#3f4853" d="M 229.5,293.5 C 230.167,293.5 230.833,293.5 231.5,293.5C 231.389,294.117 231.056,294.617 230.5,295C 226.888,296.15 223.222,296.983 219.5,297.5C 220.5,296.833 221.5,296.167 222.5,295.5C 225.01,295.073 227.343,294.407 229.5,293.5 Z"/></g>
<g><path style="opacity:1" fill="#253549" d="M 400.5,315.5 C 399.513,317.473 398.513,319.473 397.5,321.5C 403.985,333.802 410.485,346.135 417,358.5C 417.667,359.833 417.667,361.167 417,362.5C 406.5,371.667 396,380.833 385.5,390C 384.391,390.638 383.225,391.138 382,391.5C 368.196,386.296 354.696,380.629 341.5,374.5C 344.216,374.678 346.883,375.178 349.5,376C 354.811,378.541 360.311,380.708 366,382.5C 381.058,369.779 393.558,354.946 403.5,338C 398.922,331.833 396.755,324.999 397,317.5C 397.816,316.177 398.983,315.511 400.5,315.5 Z"/></g>
<g><path style="opacity:1" fill="#263649" d="M 104.5,329.5 C 104.212,334.362 102.546,338.696 99.5,342.5C 108.724,358.238 120.391,372.071 134.5,384C 139.727,381.441 145.393,379.941 151.5,379.5C 142.488,383.999 133.155,387.999 123.5,391.5C 111.227,382.063 99.3934,372.063 88,361.5C 92.6777,350.48 98.1777,339.813 104.5,329.5 Z"/></g>
</svg>
